Exact Audio Copy V0.99 prebeta 4 from 23. January 2008

EAC extraction logfile from 22. June 2009, 23:08

Isao Suzuki Trio / Black Orpheus (SACD)

Used drive  : LITE-ON DVDRW SHM-165P6S   Adapter: 0  ID: 0

Read mode               : Secure
Utilize accurate stream : Yes
Defeat audio cache      : Yes
Make use of C2 pointers : No

Read offset correction                      : 6
Overread into Lead-In and Lead-Out          : No
Fill up missing offset samples with silence : Yes
Delete leading and trailing silent blocks   : No
Null samples used in CRC calculations       : Yes
Used interface                              : Installed external ASPI interface

Used output format : Internal WAV Routines
Sample format      : 44.100 Hz; 16 Bit; Stereo


TOC of the extracted CD

     Track |   Start  |  Length  | Start sector | End sector 
    ---------------------------------------------------------
        1  |  0:00.00 | 11:11.48 |         0    |    50372   
        2  | 11:11.48 |  8:11.25 |     50373    |    87222   
        3  | 19:22.73 |  8:12.10 |     87223    |   124132   
        4  | 27:35.08 |  5:44.67 |    124133    |   149999   
        5  | 33:20.00 |  5:55.43 |    150000    |   176667   


Range status and errors

Selected range

     Filename H:MusicMy RiptempIsao Suzuki Trio - Black Orpheus (SACD).wav

     Peak level 100.0 %
     Range quality 100.0 %
     Test CRC 4B2C4DC7
     Copy CRC 4B2C4DC7
     Copy OK

No errors occurred

 
AccurateRip summary
 
Track  1  cannot be verified as accurate (confidence 1)  [789BE95E], AccurateRip returned [9534928E]
Track  2  cannot be verified as accurate (confidence 1)  [750C0FB7], AccurateRip returned [76710DF7]
Track  3  cannot be verified as accurate (confidence 1)  [699135C4], AccurateRip returned [2F7F7D44]
Track  4  cannot be verified as accurate (confidence 1)  [05F11E82], AccurateRip returned [80C97652]
Track  5  cannot be verified as accurate (confidence 1)  [F6D8FC9E], AccurateRip returned [BBCAB36E]
 
No tracks could be verified as accurate
You may have a different pressing from the one(s) in the database

End of status report